<svg width="288" height="295" viewBox="0 0 288 295" fill="none" xmlns="http://www.w3.org/2000/svg">
<g style="mix-blend-mode:screen" clip-path="url(#clip0_405_4)">
<g opacity="0.3">
<path d="M131.779 60.7874L115.686 51.5561V70.1059L131.779 79.3372L147.96 70.1059V51.5561L131.779 60.7874Z" fill="#878CFF"/>
<path d="M147.96 70.1059L131.779 79.3372V60.7874L147.96 51.5561V70.1059Z" fill="#0012A3"/>
<path d="M131.779 60.7876L115.686 51.5562L131.779 42.2378L147.96 51.5562L131.779 60.7876Z" fill="#878CFF"/>
<path d="M131.779 60.7874L115.686 51.5561V52.3399L131.779 61.5712L147.96 52.3399V51.5561L131.779 60.7874Z" fill="white"/>
</g>
<path d="M178.048 202.132L177.961 202.045L104.228 159.72L104.578 159.546L178.048 117.308L178.136 117.395L251.868 159.72L251.518 159.894L178.048 202.132ZM105.103 159.72L178.048 201.696L250.993 159.72L178.048 117.83L105.103 159.72Z" fill="#878CFF"/>
<path d="M208.398 130.197L208.136 129.848L287.204 83.6917L186.882 25.8651L143.849 51.1207L143.587 50.7724L186.882 25.4297L186.969 25.5168L287.991 83.6917L208.398 130.197Z" fill="#878CFF"/>
<path d="M178.048 127.497L162.392 118.44V136.554L178.048 145.612L193.791 136.554V118.44L178.048 127.497Z" fill="#878CFF"/>
<path d="M178.048 145.612L162.392 136.554V118.44L178.048 127.497V145.612Z" fill="#878CFF"/>
<path d="M193.791 136.554L178.048 145.612V127.497L193.791 118.44V136.554Z" fill="#0012A3"/>
<path d="M178.048 127.497L162.392 118.44L178.048 109.383L193.791 118.44L178.048 127.497Z" fill="#878CFF"/>
<path d="M178.048 127.497L163.004 118.875L162.392 119.224L178.048 128.281L193.791 119.224L193.092 118.875L178.048 127.497Z" fill="black"/>
<path d="M198.515 139.08L182.771 130.023V148.137L198.515 157.194L214.258 148.137V130.023L198.515 139.08Z" fill="#878CFF"/>
<path d="M198.515 157.194L182.771 148.137V130.023L198.515 139.08V157.194Z" fill="#878CFF"/>
<path d="M214.258 148.137L198.515 157.194V139.08L214.258 130.023V148.137Z" fill="#0012A3"/>
<path d="M198.515 139.08L182.771 130.023L198.515 121.053L214.258 130.023L198.515 139.08Z" fill="#878CFF"/>
<path d="M198.515 139.08L183.471 130.458L182.771 130.807L198.515 139.864L214.258 130.807L213.559 130.458L198.515 139.08Z" fill="black"/>
<path d="M218.981 150.663L203.238 141.693V159.72L218.981 168.777L234.638 159.72V141.693L218.981 150.663Z" fill="#878CFF"/>
<path d="M218.981 168.777L203.238 159.72V141.693L218.981 150.663V168.777Z" fill="#878CFF"/>
<path d="M234.638 159.72L218.981 168.777V150.663L234.638 141.693V159.72Z" fill="#0012A3"/>
<path d="M218.981 150.663L203.238 141.693L218.981 132.635L234.638 141.693L218.981 150.663Z" fill="#878CFF"/>
<path d="M218.981 150.663L203.938 142.041L203.238 142.476L218.981 151.447L234.638 142.476V141.693L218.981 150.663Z" fill="black"/>
<path d="M157.669 139.864L141.925 130.807V148.921L157.669 157.978L173.413 148.921V130.807L157.669 139.864Z" fill="#878CFF"/>
<path d="M157.669 157.978L141.925 148.921V130.807L157.669 139.864V157.978Z" fill="#878CFF"/>
<path d="M173.413 148.921L157.669 157.978V139.864L173.413 130.807V148.921Z" fill="#0012A3"/>
<path d="M157.669 139.864L141.925 130.807L157.669 121.837L173.413 130.807L157.669 139.864Z" fill="#878CFF"/>
<path d="M157.669 139.864L142.625 131.242L141.925 131.59L157.669 140.648L173.413 131.59L172.713 131.242L157.669 139.864Z" fill="black"/>
<path d="M178.048 151.446L162.392 142.476V160.504L178.048 169.561L193.791 160.504V142.476L178.048 151.446Z" fill="#878CFF"/>
<path d="M178.048 169.561L162.392 160.504V142.476L178.048 151.446V169.561Z" fill="#878CFF"/>
<path d="M193.791 160.504L178.048 169.561V151.446L193.791 142.476V160.504Z" fill="#0012A3"/>
<path d="M178.048 151.446L162.392 142.476L178.048 133.419L193.791 142.476L178.048 151.446Z" fill="#878CFF"/>
<path d="M178.048 151.446L163.004 142.825L162.392 143.26L178.048 152.23L193.791 143.26L193.092 142.825L178.048 151.446Z" fill="black"/>
<path d="M198.515 163.116L182.771 154.059V172.174L198.515 181.144L214.258 172.174V154.059L198.515 163.116Z" fill="#878CFF"/>
<path d="M198.515 181.144L182.771 172.174V154.059L198.515 163.116V181.144Z" fill="#878CFF"/>
<path d="M214.258 172.174L198.515 181.144V163.116L214.258 154.059V172.174Z" fill="#0012A3"/>
<path d="M198.515 163.116L182.771 154.059L198.515 145.002L214.258 154.059L198.515 163.116Z" fill="#878CFF"/>
<path d="M198.515 163.116L183.471 154.408L182.771 154.843L198.515 163.9L214.258 154.843V154.059L198.515 163.116Z" fill="black"/>
<path d="M137.202 152.23L121.458 143.26V161.287L137.202 170.345L152.946 161.287V143.26L137.202 152.23Z" fill="#878CFF"/>
<path d="M137.202 170.345L121.458 161.287V143.26L137.202 152.23V170.345Z" fill="#878CFF"/>
<path d="M152.946 161.287L137.202 170.345V152.23L152.946 143.26V161.287Z" fill="#0012A3"/>
<path d="M137.202 152.23L121.458 143.26L137.202 134.203L152.946 143.26L137.202 152.23Z" fill="#878CFF"/>
<path d="M137.202 152.23L121.458 143.26V144.044L137.202 153.014L152.946 144.044L152.246 143.609L137.202 152.23Z" fill="black"/>
<path d="M157.669 163.9L141.925 154.843V172.957L157.669 181.927L173.413 172.957V154.843L157.669 163.9Z" fill="#878CFF"/>
<path d="M157.669 181.927L141.925 172.957V154.843L157.669 163.9V181.927Z" fill="#878CFF"/>
<path d="M173.413 172.957L157.669 181.927V163.9L173.413 154.843V172.957Z" fill="#0012A3"/>
<path d="M157.669 163.9L141.925 154.843L157.669 145.786L173.413 154.843L157.669 163.9Z" fill="#878CFF"/>
<path d="M157.669 163.9L141.925 154.843V155.627L157.669 164.684L173.413 155.627L172.713 155.191L157.669 163.9Z" fill="black"/>
<path d="M178.048 175.483L162.392 166.426V184.54L178.048 193.597L193.791 184.54V166.426L178.048 175.483Z" fill="#878CFF"/>
<path d="M178.048 193.597L162.392 184.54V166.426L178.048 175.483V193.597Z" fill="#878CFF"/>
<path d="M193.791 184.54L178.048 193.597V175.483L193.791 166.426V184.54Z" fill="#0012A3"/>
<path d="M178.048 175.483L162.392 166.426L178.048 157.368L193.791 166.426L178.048 175.483Z" fill="#878CFF"/>
<path d="M178.048 175.483L162.392 166.426V167.209L178.048 176.267L193.791 167.209V166.426L178.048 175.483Z" fill="black"/>
<path d="M178.048 103.461L162.392 94.4037V112.518L178.048 121.575L193.791 112.518V94.4037L178.048 103.461Z" fill="#878CFF"/>
<path d="M178.048 121.575L162.392 112.518V94.4037L178.048 103.461V121.575Z" fill="#878CFF"/>
<path d="M193.791 112.518L178.048 121.575V103.461L193.791 94.4037V112.518Z" fill="#0012A3"/>
<path d="M178.048 103.461L162.392 94.4037L178.048 85.4336L193.791 94.4037L178.048 103.461Z" fill="#878CFF"/>
<path d="M178.048 103.461L163.004 94.8392L162.392 95.1875L178.048 104.245L193.791 95.1875L193.092 94.8392L178.048 103.461Z" fill="black"/>
<path opacity="0.7" d="M178.048 172.522L167.377 166.338L178.048 160.242L188.806 166.338L178.048 172.522Z" fill="#0094FF"/>
<path opacity="0.7" d="M157.668 160.939L146.91 154.756L157.668 148.573L168.426 154.756L157.668 160.939Z" fill="#0094FF"/>
<path opacity="0.7" d="M198.514 160.155L187.756 153.972L198.514 147.789L209.273 153.972L198.514 160.155Z" fill="#0094FF"/>
<path opacity="0.7" d="M218.981 147.876L208.223 141.692L218.981 135.596L229.739 141.692L218.981 147.876Z" fill="#0094FF"/>
<path opacity="0.7" d="M137.202 149.356L126.531 143.173L137.202 136.99L147.96 143.173L137.202 149.356Z" fill="#0094FF"/>
<path d="M198.515 115.131L182.771 106.074V124.101L198.515 133.158L214.258 124.101V106.074L198.515 115.131Z" fill="#878CFF"/>
<path d="M198.515 133.158L182.771 124.101V106.074L198.515 115.131V133.158Z" fill="#878CFF"/>
<path d="M214.258 124.101L198.515 133.158V115.131L214.258 106.074V124.101Z" fill="#0012A3"/>
<path d="M198.515 115.131L182.771 106.074L198.515 97.0164L214.258 106.074L198.515 115.131Z" fill="#878CFF"/>
<path d="M198.515 115.131L183.471 106.422L182.771 106.857L198.515 115.915L214.258 106.857L213.559 106.422L198.515 115.131Z" fill="black"/>
<path d="M218.981 126.713L203.238 117.656V135.771L218.981 144.828L234.638 135.771V117.656L218.981 126.713Z" fill="#878CFF"/>
<path d="M218.981 144.828L203.238 135.771V117.656L218.981 126.713V144.828Z" fill="#878CFF"/>
<path d="M234.638 135.771L218.981 144.828V126.713L234.638 117.656V135.771Z" fill="#0012A3"/>
<path d="M218.981 126.713L203.238 117.656L218.981 108.599L234.638 117.656L218.981 126.713Z" fill="#878CFF"/>
<path d="M218.981 126.713L203.938 118.092L203.238 118.44L218.981 127.497L234.638 118.44V117.656L218.981 126.713Z" fill="black"/>
<path d="M157.669 115.915L141.925 106.857V124.885L157.669 133.942L173.413 124.885V106.857L157.669 115.915Z" fill="#878CFF"/>
<path d="M157.669 133.942L141.925 124.885V106.857L157.669 115.915V133.942Z" fill="#878CFF"/>
<path d="M173.413 124.885L157.669 133.942V115.915L173.413 106.857V124.885Z" fill="#0012A3"/>
<path d="M157.669 115.915L141.925 106.857L157.669 97.8002L173.413 106.857L157.669 115.915Z" fill="#878CFF"/>
<path d="M157.669 115.915L142.625 107.206L141.925 107.641L157.669 116.698L173.413 107.641L172.713 107.206L157.669 115.915Z" fill="black"/>
<path d="M178.048 127.497L162.392 118.44V136.554L178.048 145.612L193.791 136.554V118.44L178.048 127.497Z" fill="#878CFF"/>
<path d="M178.048 145.612L162.392 136.554V118.44L178.048 127.497V145.612Z" fill="#878CFF"/>
<path d="M193.791 136.554L178.048 145.612V127.497L193.791 118.44V136.554Z" fill="#0012A3"/>
<path d="M178.048 127.497L162.392 118.44L178.048 109.383L193.791 118.44L178.048 127.497Z" fill="#878CFF"/>
<path d="M178.048 127.497L163.004 118.875L162.392 119.224L178.048 128.281L193.791 119.224L193.092 118.875L178.048 127.497Z" fill="black"/>
<path d="M198.515 139.08L182.771 130.023V148.137L198.515 157.194L214.258 148.137V130.023L198.515 139.08Z" fill="#878CFF"/>
<path d="M198.515 157.194L182.771 148.137V130.023L198.515 139.08V157.194Z" fill="#878CFF"/>
<path d="M214.258 148.137L198.515 157.194V139.08L214.258 130.023V148.137Z" fill="#0012A3"/>
<path d="M198.515 139.08L182.771 130.023L198.515 121.053L214.258 130.023L198.515 139.08Z" fill="#878CFF"/>
<path d="M198.515 139.08L183.471 130.458L182.771 130.807L198.515 139.864L214.258 130.807V130.023L198.515 139.08Z" fill="black"/>
<path d="M137.202 128.281L121.458 119.224V137.338L137.202 146.395L152.946 137.338V119.224L137.202 128.281Z" fill="#878CFF"/>
<path d="M137.202 146.395L121.458 137.338V119.224L137.202 128.281V146.395Z" fill="#878CFF"/>
<path d="M152.946 137.338L137.202 146.395V128.281L152.946 119.224V137.338Z" fill="#0012A3"/>
<path d="M137.202 128.281L121.458 119.224L137.202 110.167L152.946 119.224L137.202 128.281Z" fill="#878CFF"/>
<path d="M137.202 128.281L122.158 119.659L121.458 120.008L137.202 129.065L152.946 120.008L152.246 119.659L137.202 128.281Z" fill="black"/>
<path d="M157.669 139.864L141.925 130.807V148.921L157.669 157.978L173.413 148.921V130.807L157.669 139.864Z" fill="#878CFF"/>
<path d="M157.669 157.978L141.925 148.921V130.807L157.669 139.864V157.978Z" fill="#878CFF"/>
<path d="M173.413 148.921L157.669 157.978V139.864L173.413 130.807V148.921Z" fill="#0012A3"/>
<path d="M157.669 139.864L141.925 130.807L157.669 121.837L173.413 130.807L157.669 139.864Z" fill="#878CFF"/>
<path d="M157.669 139.864L141.925 130.807V131.59L157.669 140.648L173.413 131.59L172.713 131.242L157.669 139.864Z" fill="black"/>
<path d="M178.048 151.446L162.392 142.476V160.504L178.048 169.561L193.791 160.504V142.476L178.048 151.446Z" fill="#878CFF"/>
<path d="M178.048 169.561L162.392 160.504V142.476L178.048 151.446V169.561Z" fill="#878CFF"/>
<path d="M193.791 160.504L178.048 169.561V151.446L193.791 142.476V160.504Z" fill="#0012A3"/>
<path d="M178.048 151.446L162.392 142.476L178.048 133.419L193.791 142.476L178.048 151.446Z" fill="#878CFF"/>
<path d="M178.048 151.446L162.392 142.476V143.26L178.048 152.23L193.791 143.26V142.476L178.048 151.446Z" fill="black"/>
<path opacity="0.7" d="M218.981 124.014L208.223 117.83L218.981 111.647L229.739 117.83L218.981 124.014Z" fill="#0094FF"/>
<path opacity="0.7" d="M137.202 125.407L126.531 119.224L137.202 113.128L147.96 119.224L137.202 125.407Z" fill="#0094FF"/>
<path d="M178.048 79.5116L162.392 70.4545V88.5688L178.048 97.5389L193.791 88.5688V70.4545L178.048 79.5116Z" fill="#878CFF"/>
<path d="M178.048 97.5389L162.392 88.5688V70.4545L178.048 79.5116V97.5389Z" fill="#878CFF"/>
<path d="M193.791 88.5688L178.048 97.5389V79.5116L193.791 70.4545V88.5688Z" fill="#0012A3"/>
<path d="M178.048 79.5116L162.392 70.4544L178.048 61.3972L193.791 70.4544L178.048 79.5116Z" fill="#878CFF"/>
<path d="M178.048 79.5116L162.392 70.4545V71.2383L178.048 80.2954L193.791 71.2383V70.4545L178.048 79.5116Z" fill="black"/>
<path d="M198.515 91.0945L182.771 82.0373V100.152L198.515 109.209L214.258 100.152V82.0373L198.515 91.0945Z" fill="#878CFF"/>
<path d="M198.515 109.209L182.771 100.152V82.0373L198.515 91.0945V109.209Z" fill="#878CFF"/>
<path d="M214.258 100.152L198.515 109.209V91.0945L214.258 82.0373V100.152Z" fill="#0012A3"/>
<path d="M198.515 91.0944L182.771 82.0372L198.515 72.98L214.258 82.0372L198.515 91.0944Z" fill="#878CFF"/>
<path d="M198.515 91.0945L182.771 82.0373V82.8211L198.515 91.8783L214.258 82.8211V82.0373L198.515 91.0945Z" fill="black"/>
<path d="M218.981 102.677L203.238 93.6199V111.734L218.981 120.791L234.638 111.734V93.6199L218.981 102.677Z" fill="#878CFF"/>
<path d="M218.981 120.791L203.238 111.734V93.6199L218.981 102.677V120.791Z" fill="#878CFF"/>
<path d="M234.638 111.734L218.981 120.791V102.677L234.638 93.6199V111.734Z" fill="#0012A3"/>
<path d="M218.981 102.677L203.238 93.6199L218.981 84.6498L234.638 93.6199L218.981 102.677Z" fill="#878CFF"/>
<path d="M218.981 102.677L203.238 93.6199V94.4037L218.981 103.461L234.638 94.4037V93.6199L218.981 102.677Z" fill="black"/>
<path d="M157.669 91.8781L141.925 82.8209V100.935L157.669 109.992L173.413 100.935V82.8209L157.669 91.8781Z" fill="#878CFF"/>
<path d="M157.669 109.992L141.925 100.935V82.8209L157.669 91.8781V109.992Z" fill="#878CFF"/>
<path d="M173.413 100.935L157.669 109.992V91.8781L173.413 82.8209V100.935Z" fill="#0012A3"/>
<path d="M157.669 91.8781L141.925 82.8209L157.669 73.7637L173.413 82.8209L157.669 91.8781Z" fill="#878CFF"/>
<path d="M157.669 91.8781L141.925 82.8209V83.6047L157.669 92.6619L173.413 83.6047V82.8209L157.669 91.8781Z" fill="black"/>
<path d="M137.202 104.245L121.458 95.1876V113.302L137.202 122.359L152.946 113.302V95.1876L137.202 104.245Z" fill="#878CFF"/>
<path d="M137.202 122.359L121.458 113.302V95.1876L137.202 104.245V122.359Z" fill="#878CFF"/>
<path d="M152.946 113.302L137.202 122.359V104.245L152.946 95.1876V113.302Z" fill="#0012A3"/>
<path d="M137.202 104.245L121.458 95.1875L137.202 86.2174L152.946 95.2746L137.202 104.245Z" fill="#878CFF"/>
<path d="M137.202 104.245L121.458 95.1876V96.0584L137.202 105.029L152.946 96.0584V95.1876L137.202 104.245Z" fill="black"/>
<path d="M118.163 66.7301L50.0298 106.669L50.2516 107.044L118.384 67.1053L118.163 66.7301Z" fill="#878CFF"/>
<path d="M66.0933 139.08C63.9067 139.08 61.8076 138.644 60.2332 137.774L13.3523 110.776C11.7779 109.905 10.9907 108.686 10.9907 107.293C10.9907 105.638 12.2152 104.07 14.3144 102.851C18.2503 100.587 24.2853 100.326 27.6964 102.329L74.5774 129.326C76.1518 130.197 76.9389 131.416 76.9389 132.81C76.9389 134.464 75.7144 136.032 73.6153 137.251C71.5161 138.47 68.7173 139.08 66.0933 139.08ZM21.8363 101.371C19.2998 101.371 16.5884 101.98 14.4893 103.2C12.4776 104.332 11.3406 105.812 11.3406 107.293C11.3406 108.512 12.1278 109.557 13.5272 110.428L60.4082 137.425C63.7318 139.341 69.5045 139.08 73.3529 136.903C75.3646 135.771 76.5016 134.29 76.5016 132.81C76.5016 131.59 75.7144 130.545 74.315 129.674L27.434 102.677C26.0346 101.806 24.0229 101.371 21.8363 101.371Z" fill="#878CFF"/>
<path d="M11.1655 41.8024V97.9743C11.1655 99.1935 11.9527 100.326 13.4396 101.197L60.3206 128.194C63.7317 130.11 69.5918 129.849 73.5277 127.671C75.7143 126.452 76.7639 124.797 76.7639 123.317V67.058L11.1655 41.8024Z" fill="#878CFF"/>
<path d="M60.408 72.022L13.5271 45.0247C10.1159 43.1087 10.5533 39.7123 14.4892 37.448C18.4251 35.1837 24.2852 34.9224 27.6963 36.9255L74.5773 63.9228C77.9884 65.8387 77.551 69.2352 73.6151 71.4995C69.6792 73.7638 63.7317 74.025 60.408 72.022Z" fill="#0094FF"/>
<path d="M65.0436 68.4513C62.7695 68.4513 61.0202 66.6225 61.0202 64.4453V39.451C61.0202 30.9163 54.7227 20.1174 47.3757 15.8501L36.6176 9.66679C33.7313 8.01211 31.1948 7.66376 29.533 8.53464C27.8711 9.49261 26.9965 11.844 26.9965 15.1533V40.1477C26.9965 42.412 25.1597 44.1537 22.9731 44.1537C20.7865 44.1537 18.8623 42.412 18.8623 40.1477V15.2404C18.8623 8.88299 21.2238 4.09314 25.5096 1.65467C29.7954 -0.783798 35.1307 -0.435445 40.641 2.78682L51.3991 8.97008C61.37 14.7179 69.1544 28.1295 69.1544 39.5381V64.5324C69.0669 66.6225 67.3176 68.4513 65.0436 68.4513Z" fill="#878CFF"/>
<path d="M131.779 74.896L131.692 74.8089L104.315 59.0459L131.867 43.1959L131.954 43.283L159.331 59.0459L131.779 74.896ZM105.103 59.0459L131.779 74.3734L158.456 59.0459L131.779 43.7184L105.103 59.0459Z" fill="#878CFF"/>
<path d="M132.042 13.1505H131.604V32.0486H132.042V13.1505Z" fill="#878CFF"/>
<path d="M131.779 44.1538L115.686 34.9224V53.4722L131.779 62.7036L147.96 53.4722V34.9224L131.779 44.1538Z" fill="#878CFF"/>
<path d="M147.96 53.4722L131.779 62.7036V44.1538L147.96 34.9224V53.4722Z" fill="#0012A3"/>
<path d="M131.779 44.1538L115.686 34.9224L131.779 25.604L147.96 34.9224L131.779 44.1538Z" fill="#878CFF"/>
<path d="M131.779 44.1538L115.686 34.9224V35.7062L131.779 44.9376L147.96 35.7062V34.9224L131.779 44.1538Z" fill="black"/>
<path d="M131.779 44.5892L131.692 44.5021L104.315 28.7392L131.867 12.8891L131.954 12.9762L159.331 28.7392L131.779 44.5892ZM105.103 28.7392L131.779 44.0667L158.456 28.7392L131.779 13.4116L105.103 28.7392Z" fill="#878CFF"/>
<path d="M159.156 28.7391H158.718V59.0458H159.156V28.7391Z" fill="#878CFF"/>
<path d="M104.928 28.7391H104.49V59.0458H104.928V28.7391Z" fill="#878CFF"/>
<path d="M132.042 44.3279H131.604V74.6346H132.042V44.3279Z" fill="#878CFF"/>
<path d="M41.7166 82.8253C41.5555 79.8526 40.2469 78.428 38.5784 77.5371L38.5889 73.5047L37.3114 73.0535L37.2858 76.9657C36.9326 76.8266 36.587 76.7476 36.2638 76.6048L36.2519 72.6362L34.9744 72.185L34.9639 76.2175C34.6784 76.131 34.4229 76.0408 34.1374 75.9543L32.3489 75.3227L32.3444 77.9497C32.3444 77.9497 33.2987 78.258 33.2686 78.2617C33.7796 78.4422 33.9531 79.0924 34.0137 79.5734L34.019 84.2147L34.0488 90.7464C34.0266 91.0545 33.9295 91.4942 33.5538 91.419C33.5614 91.4791 32.6296 91.1069 32.6296 91.1069L32.3774 93.9481L34.0681 94.5308C34.3837 94.6135 34.6768 94.7601 34.9923 94.8429L34.9894 98.9355L36.2669 99.3866L36.2774 95.3541C36.6306 95.4932 36.9838 95.6323 37.2993 95.7151L37.3189 99.7438L38.5963 100.195L38.5992 96.1023C40.7706 96.625 42.2949 96.1292 42.4483 92.2621C42.6101 89.1879 41.8195 87.5155 40.594 86.5081C41.3372 86.1098 41.8092 85.0125 41.7166 82.8253ZM39.9004 90.9313C39.9189 93.9829 37.1607 92.6785 36.2965 92.3589L36.2829 86.9246C37.1471 87.2442 39.8969 87.7557 39.9004 90.9313ZM39.3057 83.0655C39.3239 85.8728 37.009 84.6962 36.2802 84.4819L36.2671 79.5361C37.0036 79.8106 39.3024 80.1341 39.3057 83.0655Z" fill="black"/>
</g>
<g opacity="0.8">
<mask id="mask0_405_4" style="mask-type:alpha" maskUnits="userSpaceOnUse" x="98" y="150" width="161" height="145">
<rect x="98.2788" y="150.428" width="159.989" height="143.99" fill="url(#paint0_linear_405_4)"/>
</mask>
<g mask="url(#mask0_405_4)">
<path opacity="0.2" d="M174.268 288.119L174.181 288.032L100.564 245.591L100.914 245.417L174.268 203.064L174.355 203.151L247.971 245.591L247.622 245.766L174.268 288.119ZM101.438 245.591L174.268 287.683L247.098 245.591L174.268 203.588L101.438 245.591Z" fill="#3033FF"/>
<g opacity="0.2">
<path d="M174.268 213.281L158.636 204.199V222.363L174.268 231.445L189.986 222.363V204.199L174.268 213.281Z" fill="#3033FF"/>
<path d="M174.268 231.445L158.636 222.363V204.199L174.268 213.281V231.445Z" fill="#3033FF"/>
<path d="M189.986 222.363L174.268 231.445V213.281L189.986 204.199V222.363Z" fill="#0012A3"/>
<path d="M174.268 213.281L158.636 204.199L174.268 195.117L189.986 204.199L174.268 213.281Z" fill="#3033FF"/>
<path d="M174.268 213.281L159.248 204.635L158.636 204.985L174.268 214.067L189.986 204.985L189.288 204.635L174.268 213.281Z" fill="#101010"/>
<path d="M194.702 224.895L178.983 215.813V233.977L194.702 243.059L210.421 233.977V215.813L194.702 224.895Z" fill="#3033FF"/>
<path d="M194.702 243.059L178.983 233.977V215.813L194.702 224.895V243.059Z" fill="#3033FF"/>
<path d="M210.421 233.977L194.702 243.059V224.895L210.421 215.813V233.977Z" fill="#0012A3"/>
<path d="M194.702 224.895L178.983 215.813L194.702 206.819L210.421 215.813L194.702 224.895Z" fill="#3033FF"/>
<path d="M194.702 224.895L179.682 216.25L178.983 216.599L194.702 225.681L210.421 216.599L209.722 216.25L194.702 224.895Z" fill="#101010"/>
<path d="M215.136 236.51L199.417 227.515V245.592L215.136 254.673L230.768 245.592V227.515L215.136 236.51Z" fill="#3033FF"/>
<path d="M215.136 254.673L199.417 245.592V227.515L215.136 236.51V254.673Z" fill="#3033FF"/>
<path d="M230.768 245.592L215.136 254.673V236.51L230.768 227.515V245.592Z" fill="#0012A3"/>
<path d="M215.136 236.51L199.417 227.515L215.136 218.433L230.768 227.515L215.136 236.51Z" fill="#3033FF"/>
<path d="M215.136 236.51L200.116 227.864L199.417 228.301L215.136 237.296L230.768 228.301V227.515L215.136 236.51Z" fill="#101010"/>
<path d="M153.921 225.681L138.202 216.599V234.763L153.921 243.845L169.64 234.763V216.599L153.921 225.681Z" fill="#3033FF"/>
<path d="M153.921 243.845L138.202 234.763V216.599L153.921 225.681V243.845Z" fill="#3033FF"/>
<path d="M169.64 234.763L153.921 243.845V225.681L169.64 216.599V234.763Z" fill="#0012A3"/>
<path d="M153.921 225.681L138.202 216.599L153.921 207.604L169.64 216.599L153.921 225.681Z" fill="#3033FF"/>
<path d="M153.921 225.681L138.901 217.036L138.202 217.385L153.921 226.467L169.64 217.385L168.941 217.036L153.921 225.681Z" fill="#101010"/>
<path d="M174.268 237.295L158.636 228.301V246.377L174.268 255.459L189.986 246.377V228.301L174.268 237.295Z" fill="#3033FF"/>
<path d="M174.268 255.459L158.636 246.377V228.301L174.268 237.295V255.459Z" fill="#3033FF"/>
<path d="M189.986 246.377L174.268 255.459V237.295L189.986 228.301V246.377Z" fill="#0012A3"/>
<path d="M174.268 237.295L158.636 228.301L174.268 219.219L189.986 228.301L174.268 237.295Z" fill="#3033FF"/>
<path d="M174.268 237.295L159.248 228.65L158.636 229.087L174.268 238.081L189.986 229.087L189.288 228.65L174.268 237.295Z" fill="#101010"/>
<path d="M194.702 248.997L178.983 239.915V258.079L194.702 267.074L210.421 258.079V239.915L194.702 248.997Z" fill="#3033FF"/>
<path d="M194.702 267.074L178.983 258.079V239.915L194.702 248.997V267.074Z" fill="#3033FF"/>
<path d="M210.421 258.079L194.702 267.074V248.997L210.421 239.915V258.079Z" fill="#0012A3"/>
<path d="M194.702 248.997L178.983 239.915L194.702 230.833L210.421 239.915L194.702 248.997Z" fill="#3033FF"/>
<path d="M194.702 248.997L179.682 240.265L178.983 240.701L194.702 249.783L210.421 240.701V239.915L194.702 248.997Z" fill="#101010"/>
<path d="M133.486 238.081L117.768 229.087V247.163L133.486 256.245L149.205 247.163V229.087L133.486 238.081Z" fill="#3033FF"/>
<path d="M133.486 256.245L117.768 247.163V229.087L133.486 238.081V256.245Z" fill="#3033FF"/>
<path d="M149.205 247.163L133.486 256.245V238.081L149.205 229.087V247.163Z" fill="#0012A3"/>
<path d="M133.486 238.081L117.768 229.087L133.486 220.005L149.205 229.087L133.486 238.081Z" fill="#3033FF"/>
<path d="M133.486 238.081L117.768 229.087V229.873L133.486 238.867L149.205 229.873L148.506 229.436L133.486 238.081Z" fill="#101010"/>
<path d="M153.921 249.783L138.202 240.701V258.865L153.921 267.86L169.64 258.865V240.701L153.921 249.783Z" fill="#3033FF"/>
<path d="M153.921 267.86L138.202 258.865V240.701L153.921 249.783V267.86Z" fill="#3033FF"/>
<path d="M169.64 258.865L153.921 267.86V249.783L169.64 240.701V258.865Z" fill="#0012A3"/>
<path d="M153.921 249.783L138.202 240.701L153.921 231.619L169.64 240.701L153.921 249.783Z" fill="#3033FF"/>
<path d="M153.921 249.783L138.202 240.701V241.487L153.921 250.569L169.64 241.487L168.941 241.051L153.921 249.783Z" fill="#101010"/>
<path d="M174.268 261.397L158.636 252.316V270.479L174.268 279.561L189.986 270.479V252.316L174.268 261.397Z" fill="#3033FF"/>
<path d="M174.268 279.561L158.636 270.479V252.316L174.268 261.397V279.561Z" fill="#3033FF"/>
<path d="M189.986 270.479L174.268 279.561V261.397L189.986 252.316V270.479Z" fill="#0012A3"/>
<path d="M174.268 261.398L158.636 252.316L174.268 243.234L189.986 252.316L174.268 261.398Z" fill="#3033FF"/>
<path d="M174.268 261.397L158.636 252.316V253.101L174.268 262.183L189.986 253.101V252.316L174.268 261.397Z" fill="#101010"/>
<path d="M174.268 189.179L158.636 180.097V198.26L174.268 207.342L189.986 198.26V180.097L174.268 189.179Z" fill="#3033FF"/>
<path d="M174.268 207.342L158.636 198.26V180.097L174.268 189.179V207.342Z" fill="#3033FF"/>
<path d="M189.986 198.26L174.268 207.342V189.179L189.986 180.097V198.26Z" fill="#0012A3"/>
<path d="M174.268 189.179L158.636 180.097L174.268 171.102L189.986 180.097L174.268 189.179Z" fill="#3033FF"/>
<path d="M174.268 189.179L159.248 180.533L158.636 180.883L174.268 189.964L189.986 180.883L189.288 180.533L174.268 189.179Z" fill="#101010"/>
<path opacity="0.7" d="M174.268 258.428L163.614 252.228L174.268 246.115L185.009 252.228L174.268 258.428Z" fill="#0094FF"/>
<path opacity="0.7" d="M153.92 246.814L143.179 240.614L153.92 234.414L164.661 240.614L153.92 246.814Z" fill="#0094FF"/>
<path opacity="0.7" d="M194.702 246.028L183.961 239.828L194.702 233.628L205.443 239.828L194.702 246.028Z" fill="#0094FF"/>
<path opacity="0.7" d="M215.137 233.715L204.396 227.515L215.137 221.402L225.878 227.515L215.137 233.715Z" fill="#0094FF"/>
<path opacity="0.7" d="M133.486 235.2L122.833 228.999L133.486 222.799L144.227 228.999L133.486 235.2Z" fill="#0094FF"/>
<path d="M194.702 200.88L178.983 191.798V209.875L194.702 218.957L210.421 209.875V191.798L194.702 200.88Z" fill="#3033FF"/>
<path d="M194.702 218.957L178.983 209.875V191.798L194.702 200.88V218.957Z" fill="#3033FF"/>
<path d="M210.421 209.875L194.702 218.957V200.88L210.421 191.798V209.875Z" fill="#0012A3"/>
<path d="M194.702 200.88L178.983 191.798L194.702 182.716L210.421 191.798L194.702 200.88Z" fill="#3033FF"/>
<path d="M194.702 200.88L179.682 192.148L178.983 192.584L194.702 201.666L210.421 192.584L209.722 192.148L194.702 200.88Z" fill="#101010"/>
<path d="M215.136 212.495L199.417 203.413V221.577L215.136 230.659L230.768 221.577V203.413L215.136 212.495Z" fill="#3033FF"/>
<path d="M215.136 230.659L199.417 221.577V203.413L215.136 212.495V230.659Z" fill="#3033FF"/>
<path d="M230.768 221.577L215.136 230.659V212.495L230.768 203.413V221.577Z" fill="#0012A3"/>
<path d="M215.136 212.495L199.417 203.413L215.136 194.331L230.768 203.413L215.136 212.495Z" fill="#3033FF"/>
<path d="M215.136 212.495L200.116 203.85L199.417 204.199L215.136 213.281L230.768 204.199V203.413L215.136 212.495Z" fill="#101010"/>
<path d="M153.921 201.666L138.202 192.584V210.661L153.921 219.743L169.64 210.661V192.584L153.921 201.666Z" fill="#3033FF"/>
<path d="M153.921 219.743L138.202 210.661V192.584L153.921 201.666V219.743Z" fill="#3033FF"/>
<path d="M169.64 210.661L153.921 219.743V201.666L169.64 192.584V210.661Z" fill="#0012A3"/>
<path d="M153.921 201.666L138.202 192.584L153.921 183.502L169.64 192.584L153.921 201.666Z" fill="#3033FF"/>
<path d="M153.921 201.666L138.901 192.934L138.202 193.37L153.921 202.452L169.64 193.37L168.941 192.934L153.921 201.666Z" fill="#101010"/>
<path d="M174.268 213.281L158.636 204.199V222.363L174.268 231.445L189.986 222.363V204.199L174.268 213.281Z" fill="#3033FF"/>
<path d="M174.268 231.445L158.636 222.363V204.199L174.268 213.281V231.445Z" fill="#3033FF"/>
<path d="M189.986 222.363L174.268 231.445V213.281L189.986 204.199V222.363Z" fill="#0012A3"/>
<path d="M174.268 213.281L158.636 204.199L174.268 195.117L189.986 204.199L174.268 213.281Z" fill="#3033FF"/>
<path d="M174.268 213.281L159.248 204.635L158.636 204.985L174.268 214.067L189.986 204.985L189.288 204.635L174.268 213.281Z" fill="#101010"/>
<path d="M194.702 224.895L178.983 215.813V233.977L194.702 243.059L210.421 233.977V215.813L194.702 224.895Z" fill="#3033FF"/>
<path d="M194.702 243.059L178.983 233.977V215.813L194.702 224.895V243.059Z" fill="#3033FF"/>
<path d="M210.421 233.977L194.702 243.059V224.895L210.421 215.813V233.977Z" fill="#0012A3"/>
<path d="M194.702 224.895L178.983 215.813L194.702 206.819L210.421 215.813L194.702 224.895Z" fill="#3033FF"/>
<path d="M194.702 224.895L179.682 216.25L178.983 216.599L194.702 225.681L210.421 216.599V215.813L194.702 224.895Z" fill="#101010"/>
<path d="M133.486 214.067L117.768 204.985V223.149L133.486 232.23L149.205 223.149V204.985L133.486 214.067Z" fill="#3033FF"/>
<path d="M133.486 232.23L117.768 223.149V204.985L133.486 214.067V232.23Z" fill="#3033FF"/>
<path d="M149.205 223.149L133.486 232.23V214.067L149.205 204.985V223.149Z" fill="#0012A3"/>
<path d="M133.486 214.067L117.768 204.985L133.486 195.903L149.205 204.985L133.486 214.067Z" fill="#3033FF"/>
<path d="M133.486 214.067L118.466 205.421L117.768 205.771L133.486 214.853L149.205 205.771L148.506 205.421L133.486 214.067Z" fill="#101010"/>
<path d="M153.921 225.681L138.202 216.599V234.763L153.921 243.845L169.64 234.763V216.599L153.921 225.681Z" fill="#3033FF"/>
<path d="M153.921 243.845L138.202 234.763V216.599L153.921 225.681V243.845Z" fill="#3033FF"/>
<path d="M169.64 234.763L153.921 243.845V225.681L169.64 216.599V234.763Z" fill="#0012A3"/>
<path d="M153.921 225.681L138.202 216.599L153.921 207.604L169.64 216.599L153.921 225.681Z" fill="#3033FF"/>
<path d="M153.921 225.681L138.202 216.599V217.385L153.921 226.467L169.64 217.385L168.941 217.036L153.921 225.681Z" fill="#101010"/>
<path d="M174.268 237.295L158.636 228.301V246.377L174.268 255.459L189.986 246.377V228.301L174.268 237.295Z" fill="#3033FF"/>
<path d="M174.268 255.459L158.636 246.377V228.301L174.268 237.295V255.459Z" fill="#3033FF"/>
<path d="M189.986 246.377L174.268 255.459V237.295L189.986 228.301V246.377Z" fill="#0012A3"/>
<path d="M174.268 237.295L158.636 228.301L174.268 219.219L189.986 228.301L174.268 237.295Z" fill="#3033FF"/>
<path d="M174.268 237.295L158.636 228.301V229.087L174.268 238.081L189.986 229.087V228.301L174.268 237.295Z" fill="#101010"/>
<path opacity="0.7" d="M215.137 209.787L204.396 203.587L215.137 197.387L225.878 203.587L215.137 209.787Z" fill="#0094FF"/>
<path opacity="0.7" d="M133.486 211.185L122.833 204.984L133.486 198.872L144.227 204.984L133.486 211.185Z" fill="#0094FF"/>
<path d="M174.268 165.164L158.636 156.082V174.246L174.268 183.24L189.986 174.246V156.082L174.268 165.164Z" fill="#3033FF"/>
<path d="M174.268 183.24L158.636 174.246V156.082L174.268 165.164V183.24Z" fill="#3033FF"/>
<path d="M189.986 174.246L174.268 183.24V165.164L189.986 156.082V174.246Z" fill="#0012A3"/>
<path d="M174.268 165.164L158.636 156.082L174.268 147L189.986 156.082L174.268 165.164Z" fill="#3033FF"/>
<path d="M174.268 165.164L158.636 156.082V156.868L174.268 165.95L189.986 156.868V156.082L174.268 165.164Z" fill="#101010"/>
<path d="M194.702 176.778L178.983 167.696V185.86L194.702 194.942L210.421 185.86V167.696L194.702 176.778Z" fill="#3033FF"/>
<path d="M194.702 194.942L178.983 185.86V167.696L194.702 176.778V194.942Z" fill="#3033FF"/>
<path d="M210.421 185.86L194.702 194.942V176.778L210.421 167.696V185.86Z" fill="#0012A3"/>
<path d="M194.702 176.778L178.983 167.696L194.702 158.614L210.421 167.696L194.702 176.778Z" fill="#3033FF"/>
<path d="M194.702 176.778L178.983 167.696V168.482L194.702 177.564L210.421 168.482V167.696L194.702 176.778Z" fill="#101010"/>
<path d="M215.136 188.393L199.417 179.311V197.475L215.136 206.557L230.768 197.475V179.311L215.136 188.393Z" fill="#3033FF"/>
<path d="M215.136 206.557L199.417 197.475V179.311L215.136 188.393V206.557Z" fill="#3033FF"/>
<path d="M230.768 197.475L215.136 206.557V188.393L230.768 179.311V197.475Z" fill="#0012A3"/>
<path d="M215.136 188.393L199.417 179.311L215.136 170.316L230.768 179.311L215.136 188.393Z" fill="#3033FF"/>
<path d="M215.136 188.393L199.417 179.311V180.097L215.136 189.179L230.768 180.097V179.311L215.136 188.393Z" fill="#101010"/>
<path d="M153.921 177.564L138.202 168.482V186.646L153.921 195.728L169.64 186.646V168.482L153.921 177.564Z" fill="#3033FF"/>
<path d="M153.921 195.728L138.202 186.646V168.482L153.921 177.564V195.728Z" fill="#3033FF"/>
<path d="M169.64 186.646L153.921 195.728V177.564L169.64 168.482V186.646Z" fill="#0012A3"/>
<path d="M153.921 177.564L138.202 168.482L153.921 159.4L169.64 168.482L153.921 177.564Z" fill="#3033FF"/>
<path d="M153.921 177.564L138.202 168.482V169.268L153.921 178.35L169.64 169.268V168.482L153.921 177.564Z" fill="#101010"/>
<path d="M133.486 189.965L117.768 180.883V199.046L133.486 208.128L149.205 199.046V180.883L133.486 189.965Z" fill="#3033FF"/>
<path d="M133.486 208.128L117.768 199.046V180.883L133.486 189.965V208.128Z" fill="#3033FF"/>
<path d="M149.205 199.046L133.486 208.128V189.965L149.205 180.883V199.046Z" fill="#0012A3"/>
<path d="M133.486 189.965L117.768 180.883L133.486 171.888L149.205 180.97L133.486 189.965Z" fill="#3033FF"/>
<path d="M133.486 189.965L117.768 180.883V181.756L133.486 190.75L149.205 181.756V180.883L133.486 189.965Z" fill="#101010"/>
</g>
</g>
</g>
<mask id="mask1_405_4" style="mask-type:alpha" maskUnits="userSpaceOnUse" x="0" y="96" width="87" height="151">
<rect y="96.7178" width="86.8512" height="149.704" fill="url(#paint1_linear_405_4)"/>
</mask>
<g mask="url(#mask1_405_4)">
<g style="mix-blend-mode:screen" clip-path="url(#clip1_405_4)">
<g opacity="0.2">
<path d="M21.561 102.432C23.7442 102.432 25.84 102.868 27.4119 103.741L74.2188 130.813C75.7907 131.686 76.5767 132.908 76.5767 134.306C76.5767 135.965 75.3541 137.537 73.2583 138.759C69.3286 141.03 63.303 141.292 59.8973 139.283L13.0904 112.212C11.5185 111.339 10.7325 110.116 10.7325 108.719C10.7325 107.06 11.9551 105.488 14.0509 104.265C16.1468 103.043 18.9412 102.432 21.561 102.432ZM65.7482 140.244C68.2807 140.244 70.9878 139.633 73.0836 138.41C75.0921 137.275 76.2274 135.79 76.2274 134.306C76.2274 133.083 75.4414 132.035 74.0442 131.162L27.2372 104.091C23.9188 102.17 18.1553 102.432 14.3129 104.615C12.3044 105.75 11.1692 107.234 11.1692 108.719C11.1692 109.942 11.9551 110.99 13.3523 111.863L60.1593 138.934C61.5565 139.807 63.565 140.244 65.7482 140.244Z" fill="#3033FF"/>
<path d="M76.4019 199.975V143.65C76.4019 142.427 75.6159 141.292 74.1314 140.418L27.3244 113.347C23.9187 111.426 18.0678 111.688 14.1381 113.871C11.955 115.094 10.9071 116.753 10.9071 118.238V174.65L76.4019 199.975Z" fill="#3033FF"/>
<path d="M27.237 169.673L74.044 196.744C77.4497 198.665 77.0131 202.071 73.0834 204.341C69.1537 206.612 63.3028 206.874 59.8971 204.865L13.0901 177.794C9.6844 175.873 10.121 172.467 14.0507 170.197C17.9804 167.926 23.9186 167.664 27.237 169.673Z" fill="#2940FE"/>
<path d="M22.6089 173.253C24.8794 173.253 26.626 175.087 26.626 177.27V202.333C26.626 210.891 32.9135 221.719 40.2489 225.998L50.99 232.199C53.8718 233.858 56.4043 234.207 58.0635 233.334C59.7227 232.373 60.5959 230.015 60.5959 226.697V201.634C60.5959 199.364 62.4298 197.617 64.6129 197.617C66.7961 197.617 68.7173 199.364 68.7173 201.634V226.61C68.7173 232.984 66.3595 237.787 62.0805 240.233C57.8015 242.678 52.4746 242.328 46.973 239.097L36.2319 232.897C26.2767 227.134 18.5046 213.685 18.5046 202.246V177.183C18.5919 175.087 20.3385 173.253 22.6089 173.253Z" fill="#3033FF"/>
</g>
<path opacity="0.2" d="M39.4071 157.088C39.2463 160.069 37.9398 161.497 36.2739 162.39L36.2844 166.434L35.0089 166.886L34.9833 162.963C34.6307 163.103 34.2856 163.182 33.963 163.325L33.951 167.305L32.6756 167.757L32.6651 163.713C32.38 163.8 32.125 163.891 31.8399 163.977L30.0543 164.611L30.0497 161.977C30.0497 161.977 31.0025 161.667 30.9725 161.664C31.4827 161.483 31.6559 160.831 31.7164 160.348L31.7216 155.694L31.7515 149.145C31.7293 148.836 31.6323 148.395 31.2572 148.47C31.2648 148.41 30.3344 148.783 30.3344 148.783L30.0826 145.934L31.7707 145.35C32.0858 145.267 32.3784 145.12 32.6935 145.037L32.6906 140.933L33.966 140.481L33.9765 144.525C34.3291 144.385 34.6818 144.246 34.9968 144.163L35.0163 140.123L36.2918 139.67L36.2947 143.774C38.4626 143.25 39.9845 143.747 40.1377 147.625C40.2992 150.708 39.5099 152.385 38.2863 153.395C39.0283 153.794 39.4996 154.894 39.4071 157.088ZM37.5938 148.959C37.6122 145.899 34.8584 147.208 33.9956 147.528L33.982 152.977C34.8448 152.657 37.5903 152.144 37.5938 148.959ZM37 156.847C37.0182 154.032 34.707 155.212 33.9793 155.427L33.9663 160.386C34.7015 160.111 36.9967 159.786 37 156.847Z" fill="black"/>
</g>
</g>
<defs>
<linearGradient id="paint0_linear_405_4" x1="178.273" y1="183.569" x2="178.273" y2="370.984" gradientUnits="userSpaceOnUse">
<stop stop-opacity="0"/>
<stop offset="0.48879"/>
<stop offset="1"/>
</linearGradient>
<linearGradient id="paint1_linear_405_4" x1="117.706" y1="117.859" x2="5.61033" y2="388.237" gradientUnits="userSpaceOnUse">
<stop offset="0.149241" stop-opacity="0"/>
<stop offset="0.214045" stop-opacity="0"/>
<stop offset="0.581057"/>
</linearGradient>
<clipPath id="clip0_405_4">
<rect width="277" height="230" fill="white" transform="translate(10.9907)"/>
</clipPath>
<clipPath id="clip1_405_4">
<rect width="276.563" height="230.629" fill="white" transform="translate(76.5767 241.638) rotate(-180)"/>
</clipPath>
</defs>
</svg>
