<svg width="257" height="114" viewBox="0 0 257 114" fill="none" xmlns="http://www.w3.org/2000/svg">
<path d="M137.822 43.4981C138.516 43.4981 138.863 43.8452 138.863 44.5392V49.0347C138.863 49.7287 138.516 50.0757 137.822 50.0757H114.115C113.2 50.0757 112.553 50.3123 112.175 50.7855C111.796 51.2588 111.607 51.9055 111.607 52.7257V54.3346C111.607 56.1012 112.427 56.9846 114.067 56.9846H131.813C134.557 56.9846 136.624 57.6944 138.012 59.114C139.4 60.5021 140.094 62.5053 140.094 65.1237V68.9094C140.094 71.2123 139.416 73.0736 138.059 74.4932C136.702 75.9129 134.589 76.6227 131.718 76.6227H105.502C104.777 76.6227 104.414 76.2757 104.414 75.5816V71.0862C104.414 70.3921 104.777 70.0451 105.502 70.0451H130.346C131.261 70.0451 131.907 69.8085 132.286 69.3353C132.664 68.8621 132.854 68.2154 132.854 67.3951V65.455C132.854 63.6883 132.033 62.805 130.393 62.805H112.648C109.903 62.805 107.837 62.111 106.449 60.7229C105.061 59.3033 104.367 57.2843 104.367 54.6658V51.2114C104.367 48.9085 105.045 47.0472 106.401 45.6276C107.758 44.208 109.872 43.4981 112.742 43.4981H137.822ZM165.687 43.4981C166.886 43.4981 167.895 43.7505 168.715 44.2553C169.536 44.7285 170.34 45.6749 171.129 47.0945L186.792 75.5343C186.95 75.8498 186.981 76.1179 186.887 76.3388C186.824 76.528 186.603 76.6227 186.224 76.6227H180.214C179.678 76.6227 179.315 76.4176 179.126 76.0075L175.766 69.9031H153.525L150.26 76.0075C150.04 76.4176 149.677 76.6227 149.172 76.6227H143.02C142.61 76.6227 142.358 76.528 142.263 76.3388C142.2 76.1179 142.247 75.8498 142.405 75.5343L157.926 47.0945C158.715 45.6749 159.488 44.7285 160.245 44.2553C161.002 43.7505 161.885 43.4981 162.895 43.4981H165.687ZM156.507 64.4139H172.785L165.261 50.5489C165.135 50.3281 164.961 50.2177 164.74 50.2177H164.457C164.236 50.2177 164.062 50.3281 163.936 50.5489L156.507 64.4139ZM195.005 43.4981C195.699 43.4981 196.046 43.8452 196.046 44.5392V63.4202C196.046 64.6821 196.141 65.7389 196.33 66.5907C196.551 67.4109 196.898 68.0734 197.371 68.5782C197.845 69.0514 198.476 69.3984 199.264 69.6192C200.085 69.8085 201.11 69.9031 202.34 69.9031H221.505C222.199 69.9031 222.546 70.2502 222.546 70.9442V75.5816C222.546 76.2757 222.199 76.6227 221.505 76.6227H202.056C199.659 76.6227 197.624 76.4019 195.952 75.9602C194.28 75.5185 192.908 74.8087 191.835 73.8308C190.794 72.8212 190.021 71.5278 189.516 69.9505C189.043 68.3415 188.806 66.4014 188.806 64.13V44.5392C188.806 43.8452 189.169 43.4981 189.895 43.4981H195.005ZM253.794 43.4981C254.52 43.4981 254.883 43.8452 254.883 44.5392V49.1766C254.883 49.9022 254.52 50.265 253.794 50.265H238.936V75.5816C238.936 76.2757 238.589 76.6227 237.895 76.6227H232.737C232.043 76.6227 231.696 76.2757 231.696 75.5816V50.265H216.837C216.111 50.265 215.749 49.9022 215.749 49.1766V44.5392C215.749 43.8452 216.111 43.4981 216.837 43.4981H253.794Z" fill="white"/>
<path d="M62.9041 110.415C62.1838 103.382 62.544 97.9722 60.9234 93.4639C58.9427 87.5131 56.0618 81.5622 52.1004 76.8736C43.6375 66.9554 34.2743 57.7587 25.2713 48.3815C14.2876 36.8404 10.6236 18.3951 18.7263 4.50974C21.9674 -1.08049 23.9481 -1.44115 28.4496 3.24743C43.2147 18.3951 60.3832 39.365 74.9682 54.693C88.4728 69.4801 84.1513 85.3491 78.2093 93.4639C74.2479 99.0542 68.8461 103.923 62.9041 110.415Z" fill="url(#paint0_linear_67_17)"/>
<g style="mix-blend-mode:hard-light">
<path d="M48.5645 114C47.8442 106.967 48.2043 101.557 46.5838 97.0489C44.6031 91.098 41.7221 85.1471 37.7608 80.4585C29.2979 70.5404 19.9347 61.3436 10.9317 51.9665C-0.0520725 40.4254 -3.71604 21.9801 4.38672 8.0947C7.62782 2.50448 9.6085 2.14382 14.11 6.83239C28.875 21.9801 46.0436 42.9499 60.6286 58.278C74.1331 73.065 69.8117 88.9341 63.8697 97.0489C59.9083 102.639 54.5065 107.508 48.5645 114Z" fill="url(#paint1_linear_67_17)"/>
</g>
<defs>
<linearGradient id="paint0_linear_67_17" x1="14.3396" y1="-34.0566" x2="76.717" y2="103.604" gradientUnits="userSpaceOnUse">
<stop offset="0.231044" stop-color="#5599CA"/>
<stop offset="0.783404" stop-color="#5D4CFD"/>
<stop offset="1" stop-color="#3033FF"/>
</linearGradient>
<linearGradient id="paint1_linear_67_17" x1="-2.00678e-06" y1="-30.4716" x2="62.3774" y2="107.189" gradientUnits="userSpaceOnUse">
<stop offset="0.231044" stop-color="#5599CA"/>
<stop offset="0.783404" stop-color="#5D4CFD"/>
<stop offset="1" stop-color="#3033FF"/>
</linearGradient>
</defs>
</svg>
